<?xml version="1.0" encoding="UTF-8" standalone="no"?>
<svg
    viewBox="-256 -232 512 464"
    width="512px"
    height="464px"
    xmlns="http://www.w3.org/2000/svg">
    <g
        id="layer1">
        <path
            style="fill:none;fill-rule:evenodd;stroke:#000000;stroke-width:1px;stroke-linecap:butt;stroke-linejoin:miter;stroke-opacity:1"
            d="m -83.0,110.0 c -2.81588,-35.3868 -73.42744,-49.1442 -84.52047,-72.1131 -16.34716,-33.84797 2.26058,-62.71611 17.45083,-81.27764 14.10537,-17.23587 13.61005,-19.65993 13.66234,-70.79573 0.0523,-51.13581 4.00051,-61.97973 16.1464,-62.10152 18.06052,-0.1811 11.86373,29.49677 12.70874,59.17833 1.04073,36.55644 -6.06677,54.03577 2.78541,55.27036 6.26796,0.87418 6.94735,-22.5034 11.8305,-59.79935 3.49259,-26.67529 5.60268,-54.70426 21.11452,-52.16528 15.83216,2.59141 15.67466,26.3087 8.40577,56.15545 -8.6868,35.66883 -11.40314,65.14933 10.84569,78.60485 46.36972,28.0432 87.88088,-40.45104 156.49582,-9.93625 51.81346,23.04275 60.58667,55.5695 62.10153,73.90081 4.46432,54.02268 -7.29574,55.14578 -1.24203,73.9008 6.05371,18.75502 19.00256,11.9741 19.25148,36.63989 0.40003,39.6392 -52.42394,41.64734 -156.16325,40.1841 -126.77474,-1.78816 -149.40364,-0.43075 -149.37621,-23.41669 0.0333,-27.93684 40.95673,-11.39249 38.50293,-42.22903 z"
            id="path1"
        />
    </g>
</svg>
