<?xml version="1.0" encoding="UTF-8" standalone="no"?>
<svg
    viewBox="-256 -232 512 464"
    width="512px"
    height="464px"
    xmlns="http://www.w3.org/2000/svg">
    <g
        id="layer1">
        <path
            style="fill:none;fill-rule:evenodd;stroke:#000000;stroke-width:1px;stroke-linecap:butt;stroke-linejoin:miter;stroke-opacity:1"
            d="m 255.0,-211.0 c 1.31737,20.90141 -22.5042,19.16747 -41.04941,22.90222 -36.84896,7.42087 -7.86444,80.19238 -9.25282,111.85808 -2.12028,48.35848 -28.61898,61.69306 -27.94568,74.52182 0.6733,12.82876 8.9512,41.36747 10.55726,53.40731 5.60901,42.04793 -3.10508,42.22903 -1.86305,59.61745 1.24203,17.38843 18.32402,31.88623 24.21959,55.27036 6.72462,26.67244 1.55865,69.6502 -21.11451,64.58558 -18.25714,-4.07819 0.684,-14.08244 -0.80291,-34.97167 -1.52671,-21.44846 -53.77362,-66.03567 -60.05658,-72.46396 -9.61626,-9.83868 -59.14815,116.13232 -97.80076,98.87918 -16.4618,-7.34797 14.25215,-19.90371 21.08331,-29.35669 9.27355,-12.83277 8.40577,-79.45873 4.05867,-82.56381 -4.34711,-3.10508 -5.45141,8.96877 -50.96738,8.95145 -30.14494,-0.0115 -51.50013,-14.54059 -55.84724,-12.67754 -4.3471,1.86304 18.76438,123.84914 -20.4935,124.82405 -12.96318,0.32192 -14.90436,-2.48406 -16.14639,-11.17827 -1.24203,-8.69421 11.39897,-7.14505 12.52685,-17.17533 1.58967,-14.13693 -24.32614,-82.1871 -31.15731,-82.1871 -6.83116,0 -19.40215,19.76594 -31.67177,27.94568 -14.90437,9.93624 -39.12396,16.76741 -48.43919,26.70366 -9.31523,9.93624 -6.24026,38.90074 -24.84061,39.12395 -22.00738,0.26409 -10.55725,-37.88192 4.34711,-57.1334 14.90437,-19.25147 64.58558,-54.64933 62.72254,-58.99644 -1.86305,-4.34711 -8.69422,-2.48406 -22.97757,-14.90436 -14.28335,-12.42031 -45.33114,-68.90534 -50.92324,-68.31168 -4.49133,0.4768 -5.58914,8.69422 -16.1464,8.0732 -10.55726,-0.62101 -16.76741,-4.96812 -18.63045,-8.0732 -1.86305,-3.10507 3.10507,-12.4203 3.10507,-19.25147 0,-6.83116 -0.83634,-15.34496 0.62102,-24.8406 1.78298,-11.61726 12.4203,-15.52538 12.4203,-20.49351 0,-2.48406 -6.49401,-3.45136 -11.61739,-13.0771 -4.37675,-8.22299 -8.75093,-19.0134 -6.42326,-21.51785 4.23313,-4.55462 19.97645,11.836 22.38776,9.75435 2.66394,-2.29975 -13.19657,-15.37013 -4.96812,-18.63046 1.44336,-0.5719 11.38224,2.15149 20.82608,7.09525 9.49993,4.97313 16.43483,15.2613 20.16092,16.50333 7.45218,2.48406 16.7674,0 28.56669,6.21015 11.79929,6.21016 19.54274,21.8625 50.30224,32.91381 51.85476,18.63045 140.57649,-10.41292 203.69298,-9.93625 63.11649,0.47667 70.64811,10.92575 79.48995,-18.00944 12.74644,-41.71311 -20.14572,-100.99802 -7.11961,-130.59508 10.04418,-22.82171 37.54935,-43.91019 61.76895,-43.91019 24.21959,0 34.77685,9.93624 35.39786,21.11452 z"
            id="path1"
        />
    </g>
</svg>
