<svg xmlns="http://www.w3.org/2000/svg"  viewBox="0 0 50 50" width="50px" height="50px"><path d="M 35 1 C 31.357143 1 26.730861 1.7633436 22.666016 3.8613281 C 20.578602 4.9387027 18.662937 6.4164072 17.136719 8.3066406 C 16.920829 7.9799623 16.664738 7.6373939 16.320312 7.2929688 C 15.150019 6.1226738 13.120681 5 10 5 C 3.4444444 5 1.1152344 10.636719 1.1152344 10.636719 A 1.0001 1.0001 0 0 0 1.7304688 11.949219 L 3.4433594 12.519531 C 3.1194296 12.91099 3.0173331 12.878943 2.6386719 13.59375 C 1.8042066 15.168988 1 17.593795 1 21 C 1 24.738095 2.3261719 27.884766 3.5761719 30.884766 C 4.8261719 33.884766 6 36.738095 6 40 C 6 42.891444 5.5309362 44.763025 5.0917969 45.886719 C 4.6526575 47.010412 4.3300781 47.300781 4.3300781 47.300781 A 1.0001 1.0001 0 0 0 5.046875 49 C 5.046875 49 8.1518089 49.0036 11.716797 48.060547 C 15.073776 47.172555 18.968736 45.429321 21.035156 41.867188 C 21.346014 41.945564 21.665952 42 22 42 L 22.355469 42 C 22.841702 42.99842 23 43.444132 23 44.625 C 23 45.614851 22.786478 46.313275 22.587891 46.757812 C 22.389303 47.202351 22.259766 47.328125 22.259766 47.328125 A 1.0001 1.0001 0 1 0 23.740234 48.671875 C 23.740234 48.671875 24.110697 48.246978 24.412109 47.572266 C 24.713522 46.897553 25 45.908149 25 44.625 C 25 43.041889 24.716803 42.196267 23.894531 40.552734 A 1.0001 1.0001 0 0 0 23 40 L 22 40 C 20.883334 40 20 39.116666 20 38 C 20 37.061061 20.62814 36.289678 21.488281 36.066406 C 22.487883 36.993032 24.013889 38 26 38 A 1.0001 1.0001 0 0 0 26.707031 36.292969 C 26.707031 36.292969 26.747565 36.347456 26.671875 36.228516 C 26.596185 36.109576 26.464311 35.875709 26.294922 35.480469 C 25.956144 34.689988 25.470412 33.254401 24.980469 30.804688 C 24.582201 28.814334 24.337248 27.033194 23.765625 25.402344 C 23.513462 24.682918 23.148224 24.008832 22.716797 23.365234 C 23.796191 23.620701 24.552734 23.894531 24.552734 23.894531 A 1.0001 1.0001 0 0 0 25.970703 22.757812 C 25.970703 22.757812 25.703142 21.681677 25.164062 20.46875 C 25.01556 20.13462 24.788825 19.786241 24.597656 19.4375 C 26.45295 19.807092 28.701489 20.442643 30.375 21.78125 C 30.914729 22.213033 31.449745 22.707751 31.986328 23.238281 C 31.957888 23.770133 31.715709 25.37341 29.683594 26.050781 A 1.0001 1.0001 0 0 0 29.054688 26.638672 C 28.905598 26.806562 28.804728 26.869428 28.611328 27.244141 C 28.29299 27.86092 28 28.780637 28 30 C 28 32.666667 30.5 36 35 36 C 36.377006 36 37.536963 35.715691 38.494141 35.287109 C 38.520373 35.319336 38.545911 35.357619 38.572266 35.386719 C 38.854994 35.698898 39.13862 35.900592 39.369141 36.087891 C 39.830183 36.462487 40 36.597756 40 37 C 40 37.524 39.813522 38 38.875 38 C 37.984848 38 37.894531 37.552734 37.894531 37.552734 A 1.0001163 1.0001163 0 1 0 36.105469 38.447266 C 36.105469 38.447266 37.015152 40 38.875 40 C 40.758478 40 42 38.476 42 37 C 42 35.777244 41.169817 34.975013 40.630859 34.537109 C 40.445827 34.386771 40.34635 34.296219 40.234375 34.197266 C 40.432056 34.031815 40.617301 33.86455 40.78125 33.695312 C 41.245129 33.21647 41.565005 32.744941 41.808594 32.335938 C 42.19413 32.550267 42.59245 32.744835 43 32.923828 L 43 33 C 43 35.711141 43.71618 38.330368 43.947266 40.085938 C 41.491602 40.448886 41.267464 42 39.5 42 C 38 42 38 41 36 41 C 34 41 31 42 31 42 C 31 42 33.511812 45.336111 37 45.908203 L 37 48 A 1.0001 1.0001 0 1 0 39 48 L 39 46.013672 C 39.610212 45.911095 40.262369 45.624655 40.916016 44.957031 C 42.136627 44.907141 43.287985 44.673288 44.220703 44.103516 C 45.262377 43.467185 46.023436 42.337333 46.023438 41 C 46.023438 38.836241 45.15993 36.207434 45.027344 33.632812 C 45.961471 33.865772 46.948014 34 48 34 A 1.0001 1.0001 0 0 0 48.933594 32.644531 C 48.933594 32.644531 48.728865 32.128058 48.488281 30.609375 C 48.247698 29.090692 48 26.642302 48 23 C 48 19.452381 47.762256 16.478865 46.666016 13.960938 C 45.768898 11.90037 44.073271 10.305556 41.820312 8.9980469 C 42.494422 8.652118 43.229727 8.3735859 43.945312 8.2304688 C 45.094741 8.0005831 46 8 46 8 A 1.0001 1.0001 0 0 0 46.707031 6.2929688 C 46.707031 6.2929688 46.03186 5.6417641 44.78125 5.0859375 C 43.53064 4.5301109 41.633333 4 39 4 C 36.533639 4 34.553897 4.4846538 33.089844 4.9902344 C 33.614185 4.2899004 34.314552 3.5443073 35.496094 2.8691406 A 1.0001 1.0001 0 0 0 35 1 z M 31.900391 3.3359375 C 30.403304 5.114838 30.013672 6.8359375 30.013672 6.8359375 A 1.0001 1.0001 0 0 0 31.554688 7.8320312 C 31.554688 7.8320312 34.266667 6 39 6 C 40.617269 6 41.765638 6.2389065 42.720703 6.5195312 C 41.55143 6.8285799 40.291596 7.2943411 39.292969 8.2929688 A 1.0001 1.0001 0 0 0 39.599609 9.9160156 C 42.431397 11.154923 43.930225 12.681991 44.833984 14.757812 C 45.737744 16.833635 46 19.547619 46 23 C 46 26.732698 46.252302 29.284308 46.511719 30.921875 C 46.609769 31.54079 46.630556 31.460788 46.720703 31.841797 C 43.701199 31.466886 41.292369 29.897215 39.064453 27.775391 C 38.289478 27.037319 37.544333 26.241645 36.804688 25.435547 A 1.0001 1.0001 0 0 0 36.660156 25.277344 C 35.730052 24.260505 34.803282 23.240862 33.853516 22.275391 A 1.0001 1.0001 0 0 0 33.552734 21.960938 C 32.92803 21.340421 32.289817 20.750604 31.625 20.21875 C 27.909621 17.246895 22.060547 17.001953 22.060547 17.001953 A 1.0001 1.0001 0 0 0 21.552734 18.894531 C 22.135335 19.185832 22.875015 20.244177 23.335938 21.28125 C 23.382348 21.385671 23.36447 21.37721 23.40625 21.478516 C 22.484499 21.243338 21.395796 21 20 21 A 1.0001 1.0001 0 0 0 19.445312 22.832031 C 20.764204 23.711292 21.400826 24.706054 21.876953 26.064453 C 22.35308 27.422852 22.608799 29.142666 23.019531 31.195312 C 23.454414 33.369724 23.869425 34.544606 24.244141 35.521484 C 22.817623 34.784368 21.832031 33.445312 21.832031 33.445312 A 1.0001 1.0001 0 0 0 20.125 34.486328 C 19.552394 34.794289 19.059242 35.230448 18.695312 35.765625 C 14.337603 33.665086 10 28.176713 10 23 C 10 17.666667 15.316406 15.949219 15.316406 15.949219 A 1.0001 1.0001 0 0 0 15.980469 15.195312 C 16.915097 10.522173 19.898829 7.5406874 23.583984 5.6386719 C 26.246703 4.2643653 29.161832 3.6551225 31.900391 3.3359375 z M 10 7 C 12.659319 7 14.076545 7.8773262 14.90625 8.7070312 C 15.604772 9.4055531 15.803274 9.9378763 15.863281 10.119141 C 15.61419 10.543421 15.386128 10.986609 15.175781 11.445312 C 14.674685 11.169953 14.107002 11 13.5 11 C 11.578812 11 10 12.578812 10 14.5 C 10 15.271055 10.264584 15.983485 10.691406 16.564453 C 9.2749648 17.95027 8 20.021706 8 23 C 8 29.314875 12.827928 35.290728 18.033203 37.662109 C 18.023446 37.775364 18 37.884354 18 38 C 18 39.146659 18.497585 40.178534 19.279297 40.910156 C 17.593265 43.753045 14.283603 45.312617 11.205078 46.126953 C 9.4746158 46.584697 7.9367799 46.790962 6.7949219 46.894531 C 6.8697309 46.733498 6.8826409 46.798641 6.9550781 46.613281 C 7.4929388 45.236975 8 43.108556 8 40 C 8 36.261905 6.6738281 33.115234 5.4238281 30.115234 C 4.1738281 27.115234 3 24.261905 3 21 C 3 17.906205 3.7177153 15.831012 4.40625 14.53125 C 5.0947847 13.231488 5.6796875 12.773437 5.6796875 12.773438 A 1.0001 1.0001 0 0 0 5.3613281 11.050781 L 3.5859375 10.458984 C 4.1823644 9.3222544 5.6837887 7 10 7 z M 13.5 13 C 13.867493 13 14.191889 13.132644 14.451172 13.347656 C 14.360073 13.647098 14.275894 13.951672 14.201172 14.263672 C 13.831602 14.413904 13.094897 14.765651 12.267578 15.3125 C 12.110768 15.076844 12 14.809093 12 14.5 C 12 13.659188 12.659188 13 13.5 13 z M 33.542969 24.869141 C 34.015497 25.380269 34.501306 25.900705 34.990234 26.433594 C 34.977848 26.471026 34.966381 26.527513 34.853516 26.658203 C 34.704124 26.831183 34.530449 27 34 27 C 33.264124 27 32.819782 26.847701 32.3125 26.726562 C 32.909428 26.143051 33.293096 25.4757 33.542969 24.869141 z M 30.367188 28.265625 C 31.113227 28.599986 32.215876 28.97565 33.882812 28.994141 A 1.0001 1.0001 0 0 0 34 29 C 35.560799 29 36.598571 28.818944 37.171875 28.703125 C 37.34591 28.875528 37.507765 29.055293 37.685547 29.224609 C 38.450404 29.953043 39.266524 30.64297 40.132812 31.269531 C 39.961902 31.560329 39.715795 31.920641 39.34375 32.304688 C 38.524558 33.150305 37.233333 34 35 34 C 31.5 34 30 31.333333 30 30 C 30 29.14533 30.193756 28.622363 30.367188 28.265625 z M 34 30 A 1 1 0 0 0 34 32 A 1 1 0 0 0 34 30 z"/></svg>