<?xml version="1.0" encoding="UTF-8" standalone="no"?>
<svg
   version="1.1"
   viewBox="33.75 60.27944 297 322.22056"
   width="297"
   height="322.22056"
   id="svg168"
   sodipodi:docname="maple-leaf.svg"
   inkscape:version="1.2.2 (732a01da63, 2022-12-09)"
   xmlns:inkscape="http://www.inkscape.org/namespaces/inkscape"
   xmlns:sodipodi="http://sodipodi.sourceforge.net/DTD/sodipodi-0.dtd"
   xmlns="http://www.w3.org/2000/svg"
   xmlns:svg="http://www.w3.org/2000/svg">
  <defs
     id="defs12" />
  <sodipodi:namedview
     id="namedview170"
     pagecolor="#ffffff"
     bordercolor="#000000"
     borderopacity="0.25"
     inkscape:showpageshadow="2"
     inkscape:pageopacity="0.0"
     inkscape:pagecheckerboard="0"
     inkscape:deskcolor="#d1d1d1"
     showgrid="false"
     showguides="false"
     inkscape:zoom="36.43212"
     inkscape:cx="156.373"
     inkscape:cy="11.967462"
     inkscape:window-width="1920"
     inkscape:window-height="1017"
     inkscape:window-x="-8"
     inkscape:window-y="-8"
     inkscape:window-maximized="1"
     inkscape:current-layer="svg168" />
  <g
     id="Maple_Leaf"
     stroke="none"
     stroke-dasharray="none"
     fill="none"
     fill-opacity="1"
     stroke-opacity="1"
     style="display:inline">
    <title
       id="title7">Maple Leaf</title>
    <g
       id="Maple_Leaf_Layer_!"
       clip-path="url(#artboard_clip_path)"
       style="display:inline">
      <title
         id="title9">Layer !</title>
      <g
         id="Group_1"
         style="display:inline">
        <g
           id="Graphic_1"
           style="display:inline">
          <title
             id="title158">path1</title>
          <path
             d="m 254.79558,311.95686 -9.62621,-15.21951 c -2.59521,-3.4076 -3.34187,-8.3137 -1.91989,-12.61485 1.422,-4.30118 4.76012,-7.23353 8.58318,-7.53986 12.61404,-3.03264 25.70794,-0.65704 37.02998,6.71823 -2.15219,-6.73693 -1.39432,-14.32642 2.02218,-20.25062 3.4165,-5.92421 9.04488,-9.40848 15.01794,-9.29689 1.82442,-12.51763 9.7658,-22.43346 20.05571,-25.04215 -7.44117,0.77244 -14.51497,-4.04033 -17.83023,-12.13103 -4.23779,3.0335 -9.6886,1.67558 -12.58914,-3.13624 -3.6193,1.91424 -7.85307,0.46846 -10.10906,-3.4521 -2.25598,-3.92057 -1.90484,-9.22227 0.8384,-12.65894 6.83526,-13.05322 14.77948,-25.20773 23.7034,-36.26574 -6.37859,1.60652 -12.8916,-1.9038 -16.1666,-8.71333 -3.275,-6.80953 -2.57648,-15.38895 1.73386,-21.29586 -7.96155,-4.72627 -12.35197,-15.27674 -10.74554,-25.82223 -1.02903,4.14368 -3.52494,7.5224 -6.81478,9.22516 -3.28984,1.70276 -7.03488,1.55426 -10.22534,-0.40548 -0.50544,3.81174 -2.68704,6.9887 -5.69316,8.29066 -3.00613,1.30196 -6.36016,0.5225 -8.75274,-2.0341 0.62421,4.89496 -0.45322,9.88413 -2.97704,13.7855 -2.52382,3.90137 -6.26947,6.36781 -10.34954,6.81497 l -7.4139,15.21951 c -0.89366,2.06474 -2.96038,2.93498 -4.72166,1.98816 -1.7613,-0.94682 -2.61117,-3.38494 -1.94163,-5.57016 l 5.18841,-14.32799 c -6.4989,-8.50005 -6.81368,-21.49371 -0.73744,-30.43903 -6.13138,1.86246 -12.61557,-0.45058 -16.92848,-6.03871 -4.31291,-5.58813 -5.77303,-13.56836 -3.812,-20.83424 -5.32238,3.76309 -11.85726,4.01982 -17.3705,0.68241 -5.51324,-3.3374 -9.25808,-9.8169 -9.95426,-17.22328 -0.73387,7.40363 -4.49737,13.86523 -10.01568,17.19608 -5.51832,3.33084 -12.05207,3.08464 -17.38808,-0.65521 1.96103,7.26588 0.50091,15.24611 -3.812,20.83424 -4.31291,5.58813 -10.7971,7.90117 -16.92848,6.03871 6.07625,8.94532 5.76146,21.93898 -0.73744,30.43903 l 5.18841,14.32799 c 0.75252,2.21231 -0.0885,4.7468 -1.897,5.71711 -1.80855,0.97031 -3.92736,0.0238 -4.77946,-2.13511 l -7.40073,-15.21951 c -4.08245,-0.44305 -7.83151,-2.90775 -10.35815,-6.80961 -2.52664,-3.90187 -3.6058,-8.89337 -2.98159,-13.79086 -2.39259,2.5566 -5.74662,3.33606 -8.75275,2.0341 -3.00613,-1.30196 -5.18773,-4.47892 -5.69316,-8.29066 -3.19047,1.95974 -6.9355,2.10824 -10.22534,0.40548 -3.28984,-1.70276 -5.78575,-5.08148 -6.81478,-9.22516 1.60859,10.54162 -2.77595,21.09089 -10.73237,25.82223 4.31435,5.90887 5.013,14.49421 1.73382,21.30621 -3.27918,6.81199 -9.79881,10.31886 -16.17973,8.70298 8.92392,11.05801 16.868145,23.21252 23.70341,36.26574 2.73351,3.43586 3.08171,8.7263 0.83201,12.6415 -2.2497,3.9152 -6.47214,5.3672 -10.08951,3.46954 -2.900535,4.81182 -8.35135,6.16974 -12.58914,3.13624 -3.31525,8.0907 -10.38908,12.90347 -17.83023,12.13103 10.28991,2.60869 18.23129,12.52452 20.055715,25.04215 5.970725,-0.10622 11.595055,3.38024 15.008415,9.30359 3.41336,5.92335 4.1698,13.50965 2.01853,20.24392 11.32579,-7.37901 24.42491,-9.7547 37.04315,-6.71823 3.82306,0.30633 7.16118,3.23868 8.58318,7.53986 1.42199,4.30115 0.67532,9.20725 -1.91989,12.61485 l -9.62621,15.21951 c 22.36474,-16.38424 43.659,-28.00033 69.2303,-33.09224 l -0.29377,80.52418 c -0.30531,6.59852 -2.5718,13.08465 -5.83675,18.6112 h 18.8837 c -3.32728,-5.6397 -5.031,-11.82195 -5.46916,-18.54415 -1.60421,-43.36844 -0.78414,-49.45119 -1.22073,-80.59122 25.60934,5.21302 47.45162,16.7316 69.79757,33.09223 z"
             stroke="#000000"
             stroke-linecap="round"
             stroke-linejoin="round"
             stroke-width="2"
             id="path15"
             sodipodi:nodetypes="ccsccsccccsccsccscscsccscccscscscscccsccscscsccsccsccccsccsccccccccc"
             style="display:inline" />
        </g>
      </g>
    </g>
  </g>
</svg>
